<?xml version="1.0" standalone="no"?>
<!DOCTYPE svg PUBLIC "-//W3C//DTD SVG 20010904//EN"
 "http://www.w3.org/TR/2001/REC-SVG-20010904/DTD/svg10.dtd">
<svg version="1.0" xmlns="http://www.w3.org/2000/svg"
 width="1040.000000pt" height="410.000000pt" viewBox="0 0 1040.000000 410.000000"
 preserveAspectRatio="xMidYMid meet">

<g transform="translate(0.000000,410.000000) scale(0.100000,-0.100000)"
fill="#000000" stroke="none">
<path d="M2402 3314 c-125 -62 -176 -205 -118 -329 61 -133 216 -186 349 -121
157 76 195 273 76 396 -55 57 -109 80 -190 80 -50 0 -77 -6 -117 -26z"/>
<path d="M8710 2661 c-189 -42 -339 -118 -475 -243 -124 -113 -205 -251 -252
-425 -24 -88 -27 -117 -27 -273 -1 -149 3 -188 21 -262 30 -119 65 -198 129
-294 120 -182 312 -315 552 -382 90 -25 111 -27 287 -27 176 0 197 2 287 27
53 15 126 40 162 57 227 103 413 299 487 514 78 228 78 496 0 724 -95 275
-340 489 -659 575 -113 30 -392 35 -512 9z m368 -456 c224 -53 356 -234 356
-490 0 -159 -44 -277 -138 -369 -90 -89 -210 -136 -351 -136 -296 0 -489 199
-489 505 0 254 131 436 352 489 76 19 192 19 270 1z"/>
<path d="M460 1715 l0 -955 526 2 527 3 371 941 371 941 3 -944 2 -943 258 2
257 3 0 950 0 950 -510 0 -509 0 -386 -939 -385 -939 -3 941 -2 942 -260 0
-260 0 0 -955z"/>
<path d="M5030 1715 l0 -955 258 2 257 3 5 764 5 764 301 -764 302 -764 268 0
267 0 301 762 301 763 5 -763 5 -762 258 -3 257 -2 0 955 0 955 -442 -2 -442
-3 -251 -612 c-138 -337 -254 -615 -257 -618 -3 -4 -20 29 -38 72 -18 43 -132
321 -254 618 l-221 540 -443 3 -442 2 0 -955z"/>
<path d="M2940 2430 l0 -230 350 0 350 0 0 -720 0 -720 258 2 257 3 3 718 2
717 355 0 355 0 0 230 0 230 -965 0 -965 0 0 -230z"/>
</g>
</svg>
